<?xml version="1.0" encoding="UTF-8"?>
<!DOCTYPE svg PUBLIC "-//W3C//DTD SVG 1.1//EN" "http://www.w3.org/Graphics/SVG/1.1/DTD/svg11.dtd">
<svg xmlns="http://www.w3.org/2000/svg" version="1.1" width="256px" height="256px" style="shape-rendering:geometricPrecision; text-rendering:geometricPrecision; image-rendering:optimizeQuality; fill-rule:evenodd; clip-rule:evenodd" xmlns:xlink="http://www.w3.org/1999/xlink">
<g><path style="opacity:0.996" fill="#141415" d="M 37.5,15.5 C 97.5009,15.3333 157.501,15.5 217.5,16C 224.259,19.3612 226.092,24.5279 223,31.5C 220.145,35.3437 216.312,37.177 211.5,37C 242.68,70.2015 252.847,109.035 242,153.5C 226.159,201.998 192.992,230.498 142.5,239C 93.1769,243.25 54.6769,225.084 27,184.5C 7.44814,150.418 4.11481,114.751 17,77.5C 23.2094,62.2385 32.0427,48.7385 43.5,37C 33.0909,36.0028 29.2576,30.5028 32,20.5C 33.7297,18.5981 35.563,16.9314 37.5,15.5 Z"/></g>
<g><path style="opacity:1" fill="#d11517" d="M 38.5,19.5 C 97.8343,19.3333 157.168,19.5 216.5,20C 222.06,24.5224 221.727,28.5224 215.5,32C 192.167,32.6667 168.833,32.6667 145.5,32C 133.232,19.5674 120.899,19.4007 108.5,31.5C 85.5072,32.6665 62.5072,32.8331 39.5,32C 35.7084,29.9473 34.5418,26.7806 36,22.5C 37.045,21.6266 37.8783,20.6266 38.5,19.5 Z"/></g>
<g><path style="opacity:1" fill="#dcb51f" d="M 121.5,25.5 C 128.732,24.4127 135.066,26.246 140.5,31C 130.781,31.4125 121.115,31.7458 111.5,32C 114.728,29.5603 118.061,27.3936 121.5,25.5 Z"/></g>
<g><path style="opacity:1" fill="#d6af1e" d="M 118.5,33.5 C 129.356,33.0273 140.022,34.194 150.5,37C 150.957,37.414 151.291,37.914 151.5,38.5C 150.333,38.8333 149.167,39.1667 148,39.5C 134.314,36.9118 120.648,36.9118 107,39.5C 103.987,38.9555 103.821,37.7888 106.5,36C 110.665,35.2946 114.665,34.4613 118.5,33.5 Z"/></g>
<g><path style="opacity:1" fill="#fdfdfd" d="M 50.5,35.5 C 67.5,35.5 84.5,35.5 101.5,35.5C 102.854,40.9876 103.687,46.6542 104,52.5C 110.182,68.3402 121.349,73.5069 137.5,68C 143.636,64.9147 147.802,60.0814 150,53.5C 150.409,47.1532 151.576,41.1532 153.5,35.5C 170.503,35.3334 187.503,35.5001 204.5,36C 245.767,78.0184 253.267,125.518 227,178.5C 198.567,221.96 158.401,240.46 106.5,234C 52.9756,220.81 22.1423,186.977 14,132.5C 11.0725,94.3765 23.2392,62.0432 50.5,35.5 Z"/></g>
<g><path style="opacity:1" fill="#eac120" d="M 112.5,40.5 C 124.185,40.3649 135.852,40.6983 147.5,41.5C 148.962,56.6245 142.295,65.2912 127.5,67.5C 127.5,64.1667 127.5,60.8333 127.5,57.5C 129.39,57.7035 130.89,57.0368 132,55.5C 133.69,50.1992 131.857,47.1992 126.5,46.5C 124.626,46.3898 123.126,47.0564 122,48.5C 121.333,50.8333 121.333,53.1667 122,55.5C 125.101,58.7793 126.268,62.7793 125.5,67.5C 111.228,65.2257 104.895,56.8924 106.5,42.5C 108.657,41.9495 110.657,41.2829 112.5,40.5 Z"/></g>
<g><path style="opacity:1" fill="#776953" d="M 125.5,48.5 C 130.493,48.997 131.493,51.1637 128.5,55C 123.382,54.8242 122.382,52.6576 125.5,48.5 Z"/></g>
<g><path style="opacity:1" fill="#353232" d="M 185.5,138.5 C 183.68,167.821 168.68,186.654 140.5,195C 133.88,196.137 127.214,196.637 120.5,196.5C 88.6957,189.694 72.029,170.027 70.5,137.5C 109.004,137.168 147.337,137.501 185.5,138.5 Z"/></g>
<g><path style="opacity:1" fill="#fdfdfd" d="M 71.5,139.5 C 108.833,139.5 146.167,139.5 183.5,139.5C 182.247,164.242 170.247,181.409 147.5,191C 121.187,199.081 99.3536,192.581 82,171.5C 75.5941,161.782 72.0941,151.116 71.5,139.5 Z"/></g>
<g><path style="opacity:1" fill="#dcdbdb" d="M 185.5,138.5 C 186.105,161.115 176.772,178.615 157.5,191C 145.674,197.228 133.341,199.062 120.5,196.5C 127.214,196.637 133.88,196.137 140.5,195C 168.68,186.654 183.68,167.821 185.5,138.5 Z"/></g>
<g><path style="opacity:0.153" fill="#ccdbed" d="M 23.5,222.5 C 24.5862,222.62 25.2528,223.287 25.5,224.5C 25.1667,225.167 24.8333,225.833 24.5,226.5C 23.5713,225.311 23.238,223.978 23.5,222.5 Z"/></g>
</svg>
